# xmcd
#
# Track frame offsets:
#	150
#	20807
#	44057
#	58520
#	76592
#	89600
#	105530
#	125972
#	146302
#	152547
#	177232
#	186990
#
# Disc length: 2835 seconds
#
# Revision: 1
# Processed by: cddbd v1.5PL3 Copyright (c) Steve Scherf et al.
# Submitted via: CDex 1.50Beta5
#
DISCID=a20b110c
DTITLE=五木ひろし - 御園座公演ライブ ’02 歌・舞・奏 Disc 1
DYEAR=2002
DGENRE=Country
TTITLE0=オープニング じょんがら三味線
TTITLE1=山河
TTITLE2=ふるさと(童謡)〜ふるさと〜
TTITLE3=萩の花郷
TTITLE4=夜空
TTITLE5=よこはま・たそがれ
TTITLE6=千曲川
TTITLE7=長良川艶歌
TTITLE8=蛍の夢は
TTITLE9=無法松の一生〜度胸千両入り〜太鼓演奏
TTITLE10=花
TTITLE11=島唄
EXTD=
EXTT0=
EXTT1=
EXTT2=
EXTT3=
EXTT4=
EXTT5=
EXTT6=
EXTT7=
EXTT8=
EXTT9=
EXTT10=
EXTT11=
PLAYORDER=
